<svg width="20" height="20" viewBox="0 0 20 20" fill="none" xmlns="http://www.w3.org/2000/svg">
<path d="M9.99984 7.50002C9.3368 7.50002 8.70091 7.76341 8.23207 8.23225C7.76323 8.7011 7.49984 9.33698 7.49984 10C7.49984 10.6631 7.76323 11.2989 8.23207 11.7678C8.70091 12.2366 9.3368 12.5 9.99984 12.5C10.6629 12.5 11.2988 12.2366 11.7676 11.7678C12.2364 11.2989 12.4998 10.6631 12.4998 10C12.4998 9.33698 12.2364 8.7011 11.7676 8.23225C11.2988 7.76341 10.6629 7.50002 9.99984 7.50002ZM9.99984 5.83335C11.1049 5.83335 12.1647 6.27234 12.9461 7.05374C13.7275 7.83514 14.1665 8.89495 14.1665 10C14.1665 11.1051 13.7275 12.1649 12.9461 12.9463C12.1647 13.7277 11.1049 14.1667 9.99984 14.1667C8.89477 14.1667 7.83496 13.7277 7.05356 12.9463C6.27216 12.1649 5.83317 11.1051 5.83317 10C5.83317 8.89495 6.27216 7.83514 7.05356 7.05374C7.83496 6.27234 8.89477 5.83335 9.99984 5.83335V5.83335ZM15.4165 5.62502C15.4165 5.90129 15.3068 6.16624 15.1114 6.36159C14.9161 6.55694 14.6511 6.66669 14.3748 6.66669C14.0986 6.66669 13.8336 6.55694 13.6383 6.36159C13.4429 6.16624 13.3332 5.90129 13.3332 5.62502C13.3332 5.34875 13.4429 5.0838 13.6383 4.88845C13.8336 4.6931 14.0986 4.58335 14.3748 4.58335C14.6511 4.58335 14.9161 4.6931 15.1114 4.88845C15.3068 5.0838 15.4165 5.34875 15.4165 5.62502V5.62502ZM9.99984 3.33335C7.93817 3.33335 7.60151 3.33919 6.64234 3.38169C5.989 3.41252 5.55067 3.50002 5.144 3.65835C4.80368 3.7833 4.49602 3.98357 4.244 4.24419C3.98318 4.49619 3.78263 4.80384 3.65734 5.14419C3.499 5.55252 3.4115 5.99002 3.3815 6.64252C3.33817 7.56252 3.33317 7.88419 3.33317 10C3.33317 12.0617 3.339 12.3984 3.3815 13.3575C3.41234 14.01 3.49984 14.4492 3.65734 14.855C3.799 15.2175 3.96567 15.4784 4.24234 15.755C4.52317 16.035 4.784 16.2025 5.14234 16.3409C5.554 16.5 5.99234 16.5884 6.64234 16.6184C7.56234 16.6617 7.88401 16.6667 9.99984 16.6667C12.0615 16.6667 12.3982 16.6609 13.3573 16.6184C14.009 16.5875 14.4482 16.5 14.8548 16.3425C15.1946 16.2169 15.5021 16.0171 15.7548 15.7575C16.0357 15.4767 16.2032 15.2159 16.3415 14.8575C16.4998 14.4467 16.5882 14.0075 16.6182 13.3575C16.6615 12.4375 16.6665 12.1159 16.6665 10C16.6665 7.93835 16.6607 7.60169 16.6182 6.64252C16.5873 5.99085 16.4998 5.55085 16.3415 5.14419C16.2159 4.80419 16.0157 4.49665 15.7557 4.24419C15.5038 3.98323 15.1961 3.78266 14.8557 3.65752C14.4473 3.49919 14.009 3.41169 13.3573 3.38169C12.4373 3.33835 12.1157 3.33335 9.99984 3.33335ZM9.99984 1.66669C12.264 1.66669 12.5465 1.67502 13.4348 1.71669C14.3223 1.75835 14.9265 1.89752 15.4582 2.10419C16.0082 2.31585 16.4715 2.60252 16.9348 3.06502C17.3586 3.4816 17.6865 3.98551 17.8957 4.54169C18.1015 5.07252 18.2415 5.67752 18.2832 6.56502C18.3223 7.45335 18.3332 7.73585 18.3332 10C18.3332 12.2642 18.3248 12.5467 18.2832 13.435C18.2415 14.3225 18.1015 14.9267 17.8957 15.4584C17.6871 16.0148 17.3591 16.5189 16.9348 16.935C16.5181 17.3586 16.0143 17.6865 15.4582 17.8959C14.9273 18.1017 14.3223 18.2417 13.4348 18.2834C12.5465 18.3225 12.264 18.3334 9.99984 18.3334C7.73567 18.3334 7.45317 18.325 6.56484 18.2834C5.67734 18.2417 5.07317 18.1017 4.5415 17.8959C3.98511 17.6871 3.48111 17.3591 3.06484 16.935C2.64101 16.5185 2.31311 16.0146 2.104 15.4584C1.89734 14.9275 1.75817 14.3225 1.7165 13.435C1.67734 12.5467 1.6665 12.2642 1.6665 10C1.6665 7.73585 1.67484 7.45335 1.7165 6.56502C1.75817 5.67669 1.89734 5.07335 2.104 4.54169C2.31253 3.98517 2.64051 3.48112 3.06484 3.06502C3.48123 2.64105 3.98519 2.31313 4.5415 2.10419C5.07317 1.89752 5.6765 1.75835 6.56484 1.71669C7.45317 1.67752 7.73567 1.66669 9.99984 1.66669Z" fill="black"/>
</svg>
