<svg width="20" height="20" viewBox="0 0 20 20" fill="none" xmlns="http://www.w3.org/2000/svg">
<path d="M17.9523 5.41498C18.3332 6.89998 18.3332 9.99998 18.3332 9.99998C18.3332 9.99998 18.3332 13.1 17.9523 14.585C17.7407 15.4058 17.1215 16.0516 16.3373 16.27C14.9132 16.6666 9.99984 16.6666 9.99984 16.6666C9.99984 16.6666 5.089 16.6666 3.66234 16.27C2.87484 16.0483 2.2565 15.4033 2.04734 14.585C1.6665 13.1 1.6665 9.99998 1.6665 9.99998C1.6665 9.99998 1.6665 6.89998 2.04734 5.41498C2.259 4.59415 2.87817 3.94831 3.66234 3.72998C5.089 3.33331 9.99984 3.33331 9.99984 3.33331C9.99984 3.33331 14.9132 3.33331 16.3373 3.72998C17.1248 3.95165 17.7432 4.59665 17.9523 5.41498V5.41498ZM8.33317 12.9166L13.3332 9.99998L8.33317 7.08331V12.9166Z" fill="black"/>
</svg>
