<svg width="210" height="18" viewBox="0 0 210 18" fill="none" xmlns="http://www.w3.org/2000/svg">
<path d="M3.648 17.616V11.04H9.96V7.89599H3.648V3.55199H11.136V0.383986H0V17.616H3.648Z" fill="black"/>
<path d="M21.7526 11.136L27.8966 0.383986H24.2246L20.0486 7.79999L15.9446 0.383986H12.0086L18.1046 11.136V17.616H21.7526V11.136Z" fill="black"/>
<path d="M33.4605 17.616V11.52H35.7405L39.6285 17.616H43.9725L39.5325 10.968C41.9805 10.152 43.4205 8.30399 43.4205 5.97599C43.4205 2.39999 40.9005 0.383986 36.5565 0.383986H29.8125V17.616H33.4605ZM33.4605 3.40799H36.3885C38.5965 3.40799 39.7725 4.27199 39.7725 5.97599C39.7725 7.65599 38.5965 8.51999 36.3885 8.51999H33.4605V3.40799Z" fill="black"/>
<path d="M49.8902 17.616V11.52H52.1702L56.0582 17.616H60.4022L55.9622 10.968C58.4102 10.152 59.8502 8.30399 59.8502 5.97599C59.8502 2.39999 57.3302 0.383986 52.9862 0.383986H46.2422V17.616H49.8902ZM49.8902 3.40799H52.8182C55.0262 3.40799 56.2022 4.27199 56.2022 5.97599C56.2022 7.65599 55.0262 8.51999 52.8182 8.51999H49.8902V3.40799Z" fill="black"/>
<path d="M74.2639 14.448H66.3199V10.32H73.3759V7.17599H66.3199V3.55199H74.0959V0.383986H62.6719V17.616H74.2639V14.448Z" fill="black"/>
<path d="M89.9256 17.616H92.9736L97.5336 6.07199V17.616H100.846V0.383986H96.4776L91.4616 13.152L86.4696 0.383986H82.1016V17.616H85.4136V6.16799L89.9256 17.616Z" fill="black"/>
<path d="M115.887 17.616H119.799L113.367 0.383986H109.383L102.903 17.616H106.575L107.895 13.92H114.591L115.887 17.616ZM111.279 4.36799L113.583 11.016H108.927L111.279 4.36799Z" fill="black"/>
<path d="M128.763 17.976C134.259 17.976 137.667 13.944 137.451 8.32799H128.571V11.232H133.563C133.083 13.368 131.475 14.88 128.931 14.88C125.475 14.88 123.627 12.336 123.627 9.02399C123.627 5.32799 125.739 3.28799 128.523 3.28799C130.827 3.28799 132.411 4.60799 132.939 6.35999H137.235C136.107 2.61599 132.987 0.0239868 128.619 0.0239868C123.579 0.0239868 119.883 3.83999 119.883 8.92799C119.883 14.256 123.771 17.976 128.763 17.976Z" fill="black"/>
<path d="M150.598 17.616H154.51L148.078 0.383986H144.094L137.614 17.616H141.286L142.606 13.92H149.302L150.598 17.616ZM145.99 4.36799L148.294 11.016H143.638L145.99 4.36799Z" fill="black"/>
<path d="M169.401 17.616V14.472H160.257L169.113 3.31199V0.383986H155.841V3.52799H164.625L155.817 14.736V17.616H169.401Z" fill="black"/>
<path d="M175.703 17.616V0.383986H172.055V17.616H175.703Z" fill="black"/>
<path d="M190.459 17.616H194.035V0.383986H190.675V11.808L183.163 0.383986H179.227V17.616H182.563V5.59199L190.459 17.616Z" fill="black"/>
<path d="M209.17 14.448H201.226V10.32H208.282V7.17599H201.226V3.55199H209.002V0.383986H197.578V17.616H209.17V14.448Z" fill="black"/>
</svg>
